<svg width="34" height="44" viewBox="0 0 34 44" fill="none" xmlns="http://www.w3.org/2000/svg">
<path d="M17.0479 17.2417C17.2525 17.2417 17.462 17.2562 17.6666 17.2756C17.4571 17.2562 17.2525 17.2465 17.0479 17.2417Z" fill="#38C6F4"/>
<path d="M16.9745 17.2417C16.9745 17.2417 16.9697 17.2417 16.9648 17.2417C14.3289 17.2417 12.146 18.1537 10.5674 19.6981C11.1131 19.2078 11.7173 18.7665 12.3896 18.4037C13.8465 17.6094 15.4203 17.2417 16.9745 17.2417Z" fill="#38C6F4"/>
<path d="M21.709 18.5112C22.6494 19.0457 23.5069 19.737 24.2329 20.5852L23.39 19.0702C22.4496 18.928 21.8064 18.5652 21.8064 18.5652C21.7723 18.5505 21.7382 18.5357 21.709 18.5161V18.5112Z" fill="#00954D"/>
<path d="M9.17279 11.7646C9.08509 11.8088 8.99249 11.8529 8.90479 11.9019C8.51989 12.1128 8.14959 12.3383 7.78909 12.5687V12.6227C8.23729 12.3138 8.70019 12.0294 9.17279 11.7646Z" fill="#38C6F4"/>
<path d="M31.8986 18.8152C31.7768 18.5897 31.6501 18.3691 31.5234 18.1533C32.5271 20.0312 33.1703 21.7423 33.5455 23.3112C33.2142 21.7766 32.6733 20.2616 31.8986 18.8152Z" fill="#38C6F4"/>
<path d="M32.0928 34.6469C32.2243 34.3821 32.351 34.1173 32.4679 33.8428C32.3315 34.1222 32.2048 34.3821 32.0928 34.6469Z" fill="#38C6F4"/>
<path d="M21.5388 35.4562C16.8662 37.996 11.0096 36.2309 8.4906 31.529C8.1983 30.9847 7.9693 30.4258 7.789 29.857V41.1192C7.789 41.178 7.7793 41.227 7.7646 41.2712C12.7978 44.5267 19.395 45.0121 25.0226 41.9527C28.175 40.2415 30.5673 37.6675 32.0729 34.6767L26.1432 24.0127C27.5075 28.3567 25.6609 33.2156 21.534 35.4513L21.5388 35.4562Z" fill="#6DCFF6"/>
<path d="M17.665 17.2759C19.0829 17.4083 20.53 17.9084 21.7091 18.5114C20.4667 17.8054 19.0829 17.3837 17.665 17.2759Z" fill="#00954D"/>
<path d="M22.5329 17.5208L18.3036 9.91629L18.1477 9.63189C17.9285 9.62209 17.7092 9.60739 17.4851 9.60739C14.474 9.60739 11.6382 10.3919 9.17279 11.7647C8.69529 12.0295 8.23729 12.3139 7.78909 12.6228V24.0173C8.30549 22.3797 9.25079 20.8794 10.5663 19.6977C12.145 18.1533 14.3278 17.2414 16.9637 17.2414C16.9637 17.2414 16.9686 17.2414 16.9735 17.2414C16.9978 17.2414 17.0222 17.2414 17.0466 17.2414C17.2512 17.2414 17.4558 17.2561 17.6654 17.2757C19.0881 17.3835 20.4718 17.8052 21.7094 18.5112C21.7435 18.5259 21.7776 18.5455 21.8069 18.5603C21.8069 18.5603 22.4451 18.9231 23.3904 19.0653L22.5329 17.5208Z" fill="#00A651"/>
<path d="M7.7889 29.857C7.7889 29.857 7.7889 29.8472 7.784 29.8423L7.7646 41.2711C7.7792 41.227 7.7889 41.178 7.7889 41.1191V29.857Z" fill="#38C6F4"/>
<path opacity="0.8" d="M7.7889 29.857C7.7889 29.857 7.7889 29.8472 7.784 29.8423L7.7646 41.2711C7.7792 41.227 7.7889 41.178 7.7889 41.1191V29.857Z" fill="#ABD037"/>
<path d="M6.4878 40.3589L4.4561 38.4663C5.0846 39.1576 5.7667 39.7901 6.4878 40.3589Z" fill="#38C6F4"/>
<path opacity="0.8" d="M6.4878 40.3589L4.4561 38.4663C5.0846 39.1576 5.7667 39.7901 6.4878 40.3589Z" fill="#ABD037"/>
<path d="M0.319902 30.249L0.271202 26.9296C0.271202 20.997 3.2531 15.7509 7.7893 12.6277V12.5737C1.845 16.4128 -1.00535 23.5074 0.319902 30.249Z" fill="#38C6F4"/>
<path d="M7.78861 24.0176V12.623C3.25241 15.7462 0.270508 20.9924 0.270508 26.9299L0.319207 30.2492C0.640807 31.8868 1.20601 33.4999 2.03431 35.0394C2.71641 36.3044 3.53501 37.4517 4.46071 38.4666L6.49251 40.3592C6.90671 40.6828 7.33061 40.9917 7.76911 41.276L7.78861 29.8472C7.17951 27.9154 7.20881 25.8807 7.79341 24.0176H7.78861Z" fill="#00954D"/>
<path d="M0.319903 30.249C0.641503 31.8865 1.2067 33.4996 2.035 35.0392C2.7171 36.3041 3.5357 37.4514 4.4614 38.4663L6.4932 40.3589C6.9074 40.6825 7.3313 40.9914 7.7698 41.2757L7.7893 29.8469C7.1802 27.9151 7.2094 25.8804 7.7941 24.0173V12.5737C1.845 16.4128 -1.00537 23.5074 0.319903 30.249Z" fill="#A6CE39"/>
<path opacity="0.8" d="M33.1986 31.8767C33.1986 31.8767 33.2084 31.8424 33.2132 31.8228C33.0086 32.5141 32.7552 33.1858 32.4678 33.8477C32.726 33.3084 32.9989 32.7053 33.1986 31.8767Z" fill="#664199"/>
<path opacity="0.8" d="M33.2188 31.8133C33.9204 29.5971 34.393 26.8171 33.5501 23.3164C34.164 26.1699 34.0276 29.0921 33.2188 31.8133Z" fill="#664199"/>
<path d="M31.5223 18.1583C31.5223 18.1583 31.5174 18.1485 31.5125 18.1436L22.2453 1.92949C21.2854 0.139909 19.0685 -0.521991 17.2901 0.443889C15.5117 1.40978 14.849 3.64063 15.8089 5.4302L18.1428 9.6272C18.1428 9.6272 18.2353 9.6321 18.3864 9.6517C20.1453 9.7448 21.836 10.1027 23.4195 10.6911C25.656 11.4167 27.9703 12.5788 29.432 14.5596" fill="#876EB1"/>
<path opacity="0.8" d="M32.0791 34.6809C32.0791 34.6809 32.0888 34.6567 32.0936 34.647C32.0888 34.6567 32.0839 34.6663 32.0791 34.6809Z" fill="#664199"/>
<path d="M33.2133 31.8231C33.2133 31.8231 33.2133 31.8231 33.2133 31.8182C34.0221 29.097 34.1537 26.17 33.5446 23.3213C33.1646 21.7524 32.5263 20.0363 31.5226 18.1634C30.7138 16.8053 30.1145 15.6286 29.3106 14.4028C29.5834 15.1138 28.9987 16.0796 28.7843 17.0063C28.7843 17.0063 27.956 19.7422 24.0776 19.1244C23.834 19.1244 23.605 19.0999 23.3906 19.0705L24.2335 20.5855C24.6867 21.1101 25.096 21.6887 25.437 22.326C25.7342 22.8752 25.9632 23.4439 26.1435 24.0176L32.0732 34.6815C32.0732 34.6815 32.0829 34.6619 32.0878 34.6472C32.1999 34.3825 32.3314 34.1226 32.463 33.8431C32.7504 33.1861 33.0038 32.5095 33.2085 31.8182L33.2133 31.8231Z" fill="#38C6F4"/>
<path d="M33.2133 31.8228C33.2133 31.8228 33.2133 31.8228 33.2133 31.8179C34.0221 29.0967 34.1537 26.1697 33.5446 23.321C33.1646 21.7521 32.5263 20.036 31.5226 18.1631C30.7138 16.805 30.324 15.7754 29.2862 14.3584C29.559 15.0693 28.9987 16.0793 28.7843 17.006C28.7843 17.006 27.956 19.7419 24.0776 19.1241C23.834 19.1241 23.605 19.0996 23.3906 19.0702L24.2335 20.5852C24.6867 21.1098 25.096 21.6883 25.437 22.3257C25.7342 22.8749 25.9632 23.4436 26.1435 24.0173L32.0732 34.6812C32.0732 34.6812 32.0829 34.6616 32.0878 34.6469C32.1999 34.3821 32.3314 34.1223 32.463 33.8428C32.7504 33.1858 33.0038 32.5092 33.2085 31.8179L33.2133 31.8228Z" fill="#0072BC"/>
<path d="M18.3857 9.64209C19.0874 9.71069 21.2361 9.97549 23.4189 10.6815C21.8354 10.0932 20.1447 9.73519 18.3857 9.64209Z" fill="#00954D"/>
<path opacity="0.8" d="M18.3857 9.64209C19.0874 9.71069 21.2361 9.97549 23.4189 10.6815C21.8354 10.0932 20.1447 9.73519 18.3857 9.64209Z" fill="#664199"/>
<path d="M22.5332 17.521L23.3907 19.0654C23.6051 19.0998 23.8341 19.1194 24.0777 19.1194C23.8439 19.0801 23.6003 19.036 23.342 18.9723L22.5332 17.521Z" fill="#00954D"/>
<path opacity="0.8" d="M22.5332 17.521L23.3907 19.0654C23.6051 19.0998 23.8341 19.1194 24.0777 19.1194C23.8439 19.0801 23.6003 19.036 23.342 18.9723L22.5332 17.521Z" fill="#664199"/>
<path d="M23.4199 10.6812C24.7939 11.1911 26.09 11.8628 27.274 12.6914C27.274 12.6914 28.1315 13.3582 28.4921 14.3927C28.5457 14.4418 28.5993 14.4957 28.6577 14.5447C27.9171 12.6031 25.6612 11.4019 23.4248 10.6763L23.4199 10.6812Z" fill="#664199"/>
<path d="M18.3872 9.64139C18.2361 9.62689 18.1436 9.61719 18.1436 9.61719L18.1533 9.63169C18.2313 9.63169 18.3092 9.63659 18.3872 9.64139Z" fill="#664199"/>
<path d="M27.6778 12.6182C26.4938 11.7896 25.1588 11.1964 23.7848 10.6864C21.602 9.98041 19.0878 9.71571 18.3862 9.64701C18.3083 9.64701 18.2303 9.64211 18.1523 9.63721L18.3083 9.92161L22.5375 17.5261L24.2379 20.5856C28.6523 20.5856 29.4514 17.7026 29.4514 17.7026C30.6597 14.3539 27.6827 12.6182 27.6827 12.6182H27.6778Z" fill="#664199"/>
</svg>
